# xmcd CD database file
#
# Track frame offsets:
#	150
#	5557
#	25107
#	43262
#	59975
#	78635
#	93062
#	118752
#	135692
#	152880
#	183087
#	202637
#	217030
#	232022
#
# Disc length: 3439 seconds
#
# Revision: 0
# Processed by: cddbd v1.5.2PL0 Copyright (c) Steve Scherf et al.
# Submitted via: CDex 1.51
#
DISCID=c00d6d0e
DTITLE=Jimmy LaRocca - Original DixieLand Jazz Band
DYEAR=1999
DGENRE=Jazz
TTITLE0=Narration
TTITLE1=Irish Channel Drag
TTITLE2=Give Me That Love
TTITLE3=Down In Old New Orleans
TTITLE4=Struntn' Blues
TTITLE5=King Tut Strut
TTITLE6=I Need Your Love
TTITLE7=Butcher Boy Blues
TTITLE8=Is It True
TTITLE9=On A Lazy Summer Night
TTITLE10=Back Of Town
TTITLE11=Bugle Blues
TTITLE12=Lets Jam It
TTITLE13=Down In Old Orleans
EXTD=YEAR: 1999
EXTT0=
EXTT1=
EXTT2=
EXTT3=
EXTT4=
EXTT5=
EXTT6=
EXTT7=
EXTT8=
EXTT9=
EXTT10=
EXTT11=
EXTT12=
EXTT13=
PLAYORDER=
